<?xml version="1.0" encoding="utf-8"?>
<!-- Generator: Adobe Illustrator 16.0.0, SVG Export Plug-In . SVG Version: 6.00 Build 0)  -->
<!DOCTYPE svg PUBLIC "-//W3C//DTD SVG 1.1//EN" "http://www.w3.org/Graphics/SVG/1.1/DTD/svg11.dtd">
<svg version="1.1" id="Layer_1" xmlns="http://www.w3.org/2000/svg" xmlns:xlink="http://www.w3.org/1999/xlink" x="0px" y="0px"
	 width="100px" height="100px" viewBox="0 0 100 100" enable-background="new 0 0 100 100" xml:space="preserve">
<circle fill="#565656" cx="50.001" cy="50" r="49.359"/>
<path fill="#494949" d="M84.314,14.526c20.02,19.809,19.864,51.099,0.585,70.375c-19.272,19.277-50.53,19.278-69.809,0
	L84.314,14.526z"/>
<path fill="#424242" d="M98.367,59.96l-15.7-14.792l-6.074-6.357l-4.354,1.029l-6.666-10.277l-5.484,5.761l-11.588-9.929V43.5
	L31.184,28.69l12.653,23.843L19.702,37.448l30.076,24.429l10.486,36.482C79.41,94.309,94.462,79.165,98.367,59.96z"/>
<path fill="#2D2D2D" d="M98.367,59.884L84.815,44.535L46.833,63.334L10.467,44.535l49.797,53.748
	C79.41,94.232,94.462,79.089,98.367,59.884z"/>
<path id="XMLID_19_" fill="#FFFFFF" d="M83.978,45.626l-29.24,15.382c-1.676,2.199-4.288,3.501-7.071,3.501
	c-2.782,0.002-5.393-1.302-7.069-3.501L11.358,45.626c-0.814-0.429-1.128-1.437-0.699-2.251c0.428-0.815,1.436-1.127,2.251-0.698
	l29.583,15.563c0.239,0.126,0.443,0.308,0.596,0.53c1.054,1.529,2.722,2.406,4.577,2.406c1.857,0,3.526-0.877,4.579-2.406
	c0.152-0.223,0.357-0.402,0.596-0.53l29.584-15.563c0.814-0.429,1.822-0.117,2.25,0.698C85.104,44.19,84.792,45.197,83.978,45.626z
	 M43.837,52.533c0.156,0.257,0.429,0.398,0.71,0.398c0.148,0,0.299-0.039,0.436-0.123c0.392-0.24,0.515-0.754,0.276-1.146
	L31.184,28.69c-0.241-0.393-0.754-0.516-1.146-0.274c-0.393,0.24-0.517,0.753-0.275,1.146L43.837,52.533z M18.742,38.81
	l22.795,16.058c0.144,0.102,0.312,0.151,0.478,0.151c0.261,0,0.521-0.123,0.683-0.354c0.264-0.375,0.176-0.895-0.201-1.16
	L19.702,37.448c-0.376-0.264-0.896-0.175-1.162,0.201C18.275,38.025,18.364,38.545,18.742,38.81z M52.637,54.665
	c0.163,0.231,0.421,0.354,0.682,0.354c0.167,0,0.335-0.05,0.479-0.151L76.593,38.81c0.377-0.265,0.467-0.785,0.203-1.161
	c-0.268-0.376-0.787-0.466-1.162-0.201L52.839,53.505C52.462,53.771,52.372,54.29,52.637,54.665z M50.354,52.809
	c0.134,0.084,0.285,0.123,0.434,0.123c0.279,0,0.554-0.142,0.71-0.398l14.076-22.971c0.24-0.393,0.117-0.906-0.275-1.146
	c-0.391-0.241-0.906-0.118-1.145,0.274L50.077,51.663C49.837,52.055,49.96,52.568,50.354,52.809z M47.667,52.293
	c0.46,0,0.834-0.373,0.834-0.833V25.394c0-0.46-0.374-0.833-0.834-0.833c-0.459,0-0.833,0.373-0.833,0.833V51.46
	C46.833,51.92,47.207,52.293,47.667,52.293z"/>
</svg>
